<?xml version="1.0" encoding="UTF-8"?>
<svg id="Capa_2" data-name="Capa 2" xmlns="http://www.w3.org/2000/svg" viewBox="0 0 239.61 242.86">
  <defs>
    <style>
      .cls-1 {
        fill: #878889;
      }

      .cls-2 {
        fill: #656767;
      }

      .cls-3 {
        fill: #fff;
      }
    </style>
  </defs>
  <g id="Capa_1-2" data-name="Capa 1">
    <g>
      <path class="cls-2" d="M172,48.85c-2.55,2.85-5.68,5.75-9.52,8.67-2.46,1.87-5.08,3.77-7.82,5.69h-14.12l3.04-14.35h28.42Z"/>
      <path class="cls-2" d="M178.08,40.42l2.59-12.25h-56.43l-13.5,63.48c-2.68,1.74-5.35,3.48-7.99,5.24l14.63-68.73h-33.15l-21.51,101.15c-10.09,11.63-14.44,23.38-8.4,34.96C21.69,148.36.1,120.73.1,89.32.1,39.99,53.33,0,118.99,0c22.09,0,42.78,4.53,60.5,12.41,0,0,0,0,0,.01.27.47,7.14,12.55-1.42,27.99Z"/>
      <path class="cls-1" d="M237.88,89.32c0,49.33-53.23,89.32-118.89,89.32-23.84,0-46.05-5.27-64.66-14.36-6.05-11.58-1.69-23.33,8.4-34.96l-4.16,19.54h83.97l6.12-28.9h-50.83l4.91-23.07c2.63-1.76,5.3-3.5,7.99-5.24l-4.86,22.87h23.72l6.81-32.11h26.64l4.01-19.22h-12.39c2.75-1.92,5.36-3.81,7.82-5.69,3.57-2.72,6.34-5.67,8.53-8.67h5.28l1.78-8.43,2.59-12.25h-.86c2.35-10.18-.16-15.44-.32-15.74,0-.01,0-.01,0-.01,34.95,15.55,58.39,44.17,58.39,76.91Z"/>
      <path class="cls-3" d="M148.66,119.97l-6.12,28.9H58.57l4.16-19.54c9.53-10.98,24.18-21.87,40.02-32.43l-4.91,23.07h50.83Z"/>
      <path class="cls-3" d="M117.38,28.17l-14.63,68.73c-15.85,10.56-30.49,21.44-40.02,32.43l21.51-101.15h33.15Z"/>
      <path class="cls-3" d="M167.05,63.2l-4.01,19.22h-26.64l-6.81,32.11h-23.72l4.86-22.87c15.26-9.88,31.01-19.43,43.93-28.46h12.39Z"/>
      <path class="cls-3" d="M179.81,28.17c-.16.71-.35,1.45-.57,2.21-1.42,5.03-3.4,11.86-8.23,18.47h-27.44l-3.04,14.35h14.12c-12.91,9.03-28.66,18.58-43.93,28.46l13.5-63.48h55.58Z"/>
      <g>
        <path class="cls-1" d="M106.56,216.85c2.47,1.37,5.06,2.71,7.75,4.03l.84-4.03h-8.59Z"/>
        <path class="cls-1" d="M121.96,199.35l-2.19,10.33h-16.35l-1.02,4.79c-3.74-2.21-7.21-4.46-10.43-6.74l1.78-8.39h28.2Z"/>
        <path class="cls-1" d="M163.53,199.35l-4.74,22.18c-.65,3-1.62,5.8-2.92,8.42-1.3,2.61-2.92,4.87-4.86,6.78-1.1,1.08-2.3,2.02-3.6,2.84-1.45-2.26-4.14-4.68-8.53-7.29.82-.12,1.58-.4,2.28-.84.97-.61,1.84-1.41,2.61-2.4.77-.99,1.41-2.14,1.91-3.43.51-1.3.92-2.65,1.25-4.07l4.74-22.18h11.85Z"/>
        <path class="cls-1" d="M132.96,225.85c0,1.37.19,2.56.58,3.57-2.22-1.08-4.72-2.19-7.54-3.33-1.65-.67-3.27-1.35-4.85-2.05.11-.82.26-1.66.45-2.51l4.74-22.18h11.85l-4.74,22.18c-.33,1.62-.49,3.06-.49,4.31Z"/>
        <path class="cls-1" d="M186.25,219.53h17.26l-4.92,22.97h-9.72l.73-3.65c-1.78,1.38-3.52,2.38-5.23,3.01-1.7.63-3.52.94-5.47.94-2.27,0-4.38-.39-6.32-1.18-1.94-.79-3.63-1.93-5.04-3.43-1.42-1.5-2.53-3.32-3.34-5.47-.81-2.15-1.22-4.6-1.22-7.35,0-3.68.74-7.13,2.22-10.33,1.48-3.2,3.45-5.99,5.92-8.35,2.47-2.37,5.29-4.23,8.45-5.59,3.16-1.36,6.44-2.04,9.84-2.04,1.82,0,3.55.21,5.17.64,1.62.43,3.08,1.05,4.38,1.88,1.3.83,2.39,1.82,3.28,2.98.89,1.16,1.56,2.46,2.01,3.92l-10.21,6.75c-.45-1.7-1.34-3.07-2.67-4.1-1.34-1.03-2.88-1.55-4.62-1.55-1.54,0-3,.38-4.38,1.12-1.38.75-2.6,1.76-3.68,3.04-1.07,1.28-1.92,2.79-2.55,4.53-.63,1.74-.94,3.61-.94,5.59,0,2.55.61,4.6,1.82,6.14,1.22,1.54,2.94,2.31,5.16,2.31,3.16,0,6.28-1.42,9.36-4.25h-7.05l1.76-8.51Z"/>
        <path class="cls-1" d="M234.81,199.35h-10.88l-23.15,43.15h12.09l3.95-8.45h10.33l.43,8.45h12.03l-4.8-43.15ZM220.22,226.15l6.26-13.37.49,13.37h-6.75Z"/>
      </g>
      <polygon class="cls-2" points="32.21 232.17 30.02 242.5 0 242.5 9.18 199.35 21.03 199.35 14.04 232.17 32.21 232.17"/>
      <path class="cls-2" d="M147.41,239.56c-1,.63-2.06,1.18-3.18,1.66-2.57,1.09-5.44,1.64-8.6,1.64-2.63,0-4.89-.37-6.78-1.12s-3.41-1.79-4.59-3.13c-1.17-1.34-2.03-2.91-2.58-4.71-.55-1.8-.82-3.76-.82-5.87,0-1.29.1-2.62.28-3.99,1.58.7,3.2,1.38,4.85,2.05,2.82,1.14,5.32,2.25,7.54,3.33.15.4.33.76.54,1.11.75,1.22,2.02,1.82,3.8,1.82.34,0,.68-.02,1-.07h0c4.39,2.61,7.08,5.02,8.53,7.29Z"/>
      <path class="cls-2" d="M114.31,220.88l-1.16,5.57h-13.31l-3.4,16.04h-11.85l7.39-34.76c3.22,2.27,6.69,4.53,10.43,6.74l-.5,2.38h4.66c2.47,1.37,5.06,2.71,7.75,4.03Z"/>
      <path class="cls-2" d="M64.78,199.35h-10.88l-23.15,43.15h12.09l3.95-8.45h10.33l.42,8.45h12.03l-4.8-43.15ZM50.19,226.15l6.26-13.37.49,13.37h-6.75Z"/>
    </g>
  </g>
</svg>