<?xml version="1.0" encoding="UTF-8"?>
<svg id="Capa_2" data-name="Capa 2" xmlns="http://www.w3.org/2000/svg" viewBox="0 0 237.78 178.64">
  <defs>
    <style>
      .cls-1 {
        fill: #ff1f8f;
      }

      .cls-2 {
        fill: #fff;
      }

      .cls-3 {
        fill: #006ac0;
      }
    </style>
  </defs>
  <g id="Capa_1-2" data-name="Capa 1">
    <g>
      <path class="cls-3" d="M171.9,48.85c-2.55,2.85-5.68,5.75-9.52,8.67-2.46,1.87-5.08,3.77-7.82,5.69h-14.12l3.04-14.35h28.42Z"/>
      <path class="cls-3" d="M177.98,40.42l2.59-12.25h-56.43l-13.5,63.48c-2.68,1.74-5.35,3.48-7.99,5.24l14.63-68.73h-33.15l-21.51,101.15c-10.09,11.63-14.44,23.38-8.4,34.96C21.59,148.36,0,120.73,0,89.32,0,39.99,53.23,0,118.89,0c22.09,0,42.78,4.53,60.5,12.41,0,0,0,0,0,.01.27.47,7.14,12.55-1.42,27.99Z"/>
      <path class="cls-1" d="M237.78,89.32c0,49.33-53.23,89.32-118.89,89.32-23.84,0-46.05-5.27-64.66-14.36-6.05-11.58-1.69-23.33,8.4-34.96l-4.16,19.54h83.97l6.12-28.9h-50.83l4.91-23.07c2.63-1.76,5.3-3.5,7.99-5.24l-4.86,22.87h23.72l6.81-32.11h26.64l4.01-19.22h-12.39c2.75-1.92,5.36-3.81,7.82-5.69,3.57-2.72,6.34-5.67,8.53-8.67h5.28l1.78-8.43,2.59-12.25h-.86c2.35-10.18-.16-15.44-.32-15.74,0-.01,0-.01,0-.01,34.95,15.55,58.39,44.17,58.39,76.91Z"/>
      <path class="cls-2" d="M148.56,119.97l-6.12,28.9H58.46l4.16-19.54c9.53-10.98,24.18-21.87,40.02-32.43l-4.91,23.07h50.83Z"/>
      <path class="cls-2" d="M117.28,28.17l-14.63,68.73c-15.85,10.56-30.49,21.44-40.02,32.43l21.51-101.15h33.15Z"/>
      <path class="cls-2" d="M180.57,28.17l-2.59,12.25-1.78,8.43h-5.28c4.83-6.61,6.81-13.44,8.23-18.47.22-.76.4-1.5.57-2.21h.86Z"/>
      <path class="cls-2" d="M166.95,63.2l-4.01,19.22h-26.64l-6.81,32.11h-23.72l4.86-22.87c15.26-9.88,31.01-19.43,43.93-28.46h12.39Z"/>
      <path class="cls-2" d="M179.71,28.17c-.16.71-.35,1.45-.57,2.21-1.42,5.03-3.4,11.86-8.23,18.47h-27.44l-3.04,14.35h14.12c-12.91,9.03-28.66,18.58-43.93,28.46l13.5-63.48h55.58Z"/>
    </g>
  </g>
</svg>