<?xml version="1.0" encoding="UTF-8"?>
<svg id="Capa_2" data-name="Capa 2" xmlns="http://www.w3.org/2000/svg" viewBox="0 0 459.79 84.08">
  <defs>
    <style>
      .cls-1 {
        fill: #fff;
      }
    </style>
  </defs>
  <g id="Capa_1-2" data-name="Capa 1">
    <g>
      <polygon class="cls-1" points="198.47 20.41 229.84 20.41 234.03 .59 179.93 .59 176.5 16.68 162.32 83.38 185.06 83.38 191.59 52.59 217.13 52.59 219.36 41.9 220.97 34.17 204.49 34.17 195.55 34.17 196.52 29.61 198.47 20.41"/>
      <path class="cls-1" d="M291.06.59l-9.09,42.56c-.62,2.72-1.42,5.32-2.39,7.81-.97,2.49-2.2,4.68-3.67,6.59-1.48,1.9-3.15,3.44-5.02,4.61-1.34.83-2.8,1.37-4.38,1.61h0c-.62.09-1.26.14-1.92.14-3.42,0-5.85-1.17-7.29-3.5-.4-.66-.75-1.36-1.04-2.12-.75-1.94-1.12-4.23-1.12-6.86,0-2.41.31-5.17.94-8.28L265.17.59h-22.74l-9.09,42.56c-.35,1.63-.64,3.24-.85,4.82-.36,2.63-.55,5.18-.55,7.66,0,4.04.52,7.8,1.58,11.25,1.05,3.46,2.7,6.47,4.95,9.04,2.25,2.57,5.19,4.57,8.81,6.01s7.95,2.16,13,2.16c6.06,0,11.56-1.05,16.5-3.15,2.15-.91,4.18-1.97,6.1-3.18,2.49-1.57,4.79-3.38,6.9-5.45,3.73-3.65,6.84-7.99,9.33-13,2.49-5.02,4.35-10.4,5.6-16.15L313.8.59h-22.74Z"/>
      <path class="cls-1" d="M357.41,39.3l-3.38,16.32h13.52c-5.91,5.44-11.89,8.16-17.96,8.16-4.27,0-7.58-1.47-9.91-4.43-2.33-2.95-3.5-6.88-3.5-11.78,0-3.81.6-7.39,1.81-10.73,1.21-3.34,2.84-6.24,4.9-8.69s4.41-4.39,7.05-5.83c2.64-1.44,5.44-2.16,8.4-2.16,3.34,0,6.3.99,8.86,2.98,2.57,1.98,4.27,4.61,5.13,7.87l19.59-12.94c-.86-2.8-2.14-5.3-3.85-7.52-1.71-2.22-3.81-4.12-6.3-5.71-2.49-1.59-5.29-2.8-8.4-3.62-3.11-.82-6.41-1.22-9.91-1.22-6.53,0-12.83,1.3-18.89,3.91-6.06,2.61-11.47,6.18-16.21,10.73-4.74,4.55-8.53,9.89-11.37,16.03-2.84,6.14-4.26,12.75-4.26,19.82,0,5.29.78,9.99,2.33,14.11,1.56,4.12,3.69,7.62,6.42,10.49,2.72,2.87,5.95,5.07,9.68,6.59,3.73,1.52,7.77,2.27,12.13,2.27,3.73,0,7.23-.6,10.49-1.81,3.26-1.21,6.61-3.13,10.03-5.77l-1.4,7h18.66l9.45-44.08h-33.12Z"/>
      <path class="cls-1" d="M450.58.59h-20.87l-44.43,82.79h23.2l7.58-16.21h19.82l.82,16.21h23.09L450.58.59ZM422.59,52.01l12.01-25.65.94,25.65h-12.94Z"/>
      <polygon class="cls-1" points="26.94 63.55 40.35 .59 17.61 .59 0 83.38 57.6 83.38 61.8 63.55 26.94 63.55"/>
      <path class="cls-1" d="M103.43.59l-44.43,82.79h23.2l7.58-16.21h19.82l.81,16.21h23.09L124.31.59h-20.88ZM96.32,52.01l12.01-25.65.93,25.65h-12.94Z"/>
    </g>
  </g>
</svg>